<svg xmlns="http://www.w3.org/2000/svg" version="1.1" xmlns:xlink="http://www.w3.org/1999/xlink" xmlns:svgjs="http://svgjs.dev/svgjs" width="2000" height="575" viewBox="0 0 2000 575"><g transform="matrix(1,0,0,1,-1.2121212121212466,-0.48868321328717457)"><svg viewBox="0 0 396 114" data-background-color="#ffffff" preserveAspectRatio="xMidYMid meet" height="575" width="2000" xmlns="http://www.w3.org/2000/svg" xmlns:xlink="http://www.w3.org/1999/xlink"><g id="tight-bounds" transform="matrix(1,0,0,1,0.2400000000000091,0.09688675880823894)"><svg viewBox="0 0 395.52 113.80622648238354" height="113.80622648238354" width="395.52"><g><svg viewBox="0 0 606.4442478394512 174.49719715451891" height="113.80622648238354" width="395.52"><g><rect width="7.296597253627522" height="174.49719715451891" x="184.52661065486157" y="0" fill="#ff8011" opacity="1" stroke-width="0" stroke="transparent" fill-opacity="1" class="rect-qz-0" data-fill-palette-color="primary" rx="1%" id="qz-0" data-palette-color="#ff8011"></rect></g><g transform="matrix(1,0,0,1,210.92424783945117,0.4340726297375994)"><svg viewBox="0 0 395.52 173.62905189504372" height="173.62905189504372" width="395.52"><g id="textblocktransform"><svg viewBox="0 0 395.52 173.62905189504372" height="173.62905189504372" width="395.52" id="textblock"><g><svg viewBox="0 0 395.52 173.62905189504372" height="173.62905189504372" width="395.52"><g transform="matrix(1,0,0,1,0,0)"><svg width="395.52" viewBox="1.5599999999999998 -39.839999999999996 202.49 85.60999999999999" height="173.62905189504372" data-palette-color="#ff8011"><svg></svg><svg></svg><g class="wordmark-text-0" data-fill-palette-color="primary" id="text-0"><path d="M3.08-16.5v0c0-1.793 0.213-3.517 0.64-5.17 0.433-1.653 1.05-3.193 1.85-4.62 0.793-1.433 1.757-2.737 2.89-3.91 1.133-1.173 2.4-2.18 3.8-3.02 1.4-0.833 2.917-1.48 4.55-1.94 1.633-0.453 3.353-0.68 5.16-0.68v0c1.433 0 2.69 0.093 3.77 0.28 1.087 0.187 2.033 0.423 2.84 0.71 0.807 0.287 1.48 0.6 2.02 0.94 0.547 0.34 1 0.667 1.36 0.98v0c-0.02 0-0.03 0.057-0.03 0.17v0c0 0.24 0.02 0.687 0.06 1.34 0.047 0.653 0.097 1.377 0.15 2.17 0.06 0.8 0.11 1.61 0.15 2.43 0.04 0.82 0.06 1.533 0.06 2.14v0c0 0.093-0.033 0.203-0.1 0.33-0.067 0.12-0.23 0.18-0.49 0.18v0c-0.147 0-0.323-0.023-0.53-0.07v0c-0.347-0.1-0.78-0.323-1.3-0.67-0.52-0.353-1.127-0.72-1.82-1.1-0.687-0.387-1.46-0.73-2.32-1.03-0.853-0.3-1.783-0.45-2.79-0.45v0c-1.333 0-2.547 0.263-3.64 0.79-1.093 0.533-2.02 1.263-2.78 2.19-0.767 0.927-1.363 2.03-1.79 3.31-0.42 1.273-0.63 2.667-0.63 4.18v0c0 1.34 0.147 2.613 0.44 3.82 0.293 1.213 0.737 2.277 1.33 3.19 0.593 0.913 1.333 1.643 2.22 2.19 0.887 0.54 1.917 0.81 3.09 0.81v0c0.927 0 1.75-0.03 2.47-0.09 0.713-0.067 1.38-0.173 2-0.32 0.62-0.147 1.227-0.343 1.82-0.59 0.593-0.24 1.23-0.55 1.91-0.93v0c0.033-0.013 0.117-0.02 0.25-0.02v0c0.113 0 0.19 0.043 0.23 0.13 0.04 0.093 0.06 0.277 0.06 0.55v0 2.93c0 0.54-0.003 1.067-0.01 1.58-0.007 0.513-0.017 0.973-0.03 1.38-0.007 0.407-0.013 0.737-0.02 0.99-0.007 0.247-0.02 0.37-0.04 0.37v0c-0.747 0.473-1.547 0.86-2.4 1.16-0.853 0.307-1.733 0.543-2.64 0.71-0.9 0.173-1.807 0.287-2.72 0.34-0.913 0.06-1.793 0.09-2.64 0.09v0c-2.293 0-4.44-0.437-6.44-1.31-2.007-0.867-3.747-2.083-5.22-3.65-1.467-1.56-2.623-3.43-3.47-5.61-0.847-2.18-1.27-4.58-1.27-7.2zM56.01-27.44l-1.52 7.57c-0.34-0.033-0.723-0.07-1.15-0.11-0.42-0.04-0.867-0.06-1.34-0.06v0c-0.713 0-1.44 0.06-2.18 0.18-0.74 0.12-1.43 0.36-2.07 0.72-0.633 0.36-1.177 0.853-1.63 1.48-0.46 0.627-0.753 1.437-0.88 2.43v0c-0.113 1.2-0.207 2.187-0.28 2.96-0.073 0.773-0.127 1.41-0.16 1.91-0.033 0.493-0.063 0.89-0.09 1.19-0.02 0.3-0.04 0.58-0.06 0.84v0c0 0.067-0.01 0.247-0.03 0.54-0.027 0.293-0.063 0.637-0.11 1.03-0.053 0.387-0.1 0.81-0.14 1.27-0.04 0.453-0.083 0.877-0.13 1.27-0.047 0.387-0.083 0.727-0.11 1.02-0.027 0.293-0.04 0.473-0.04 0.54v0c0 0.127 0.003 0.237 0.01 0.33 0.013 0.087 0.02 0.17 0.02 0.25v0c0 0.133-0.063 0.243-0.19 0.33-0.12 0.093-0.39 0.197-0.81 0.31v0l-6.47 2.32c-0.18 0.067-0.417 0.147-0.71 0.24-0.293 0.1-0.58 0.15-0.86 0.15v0c-0.227 0-0.427-0.057-0.6-0.17-0.167-0.113-0.25-0.31-0.25-0.59v0l2.1-24.19c0.047-0.54 0.107-0.91 0.18-1.11 0.073-0.207 0.257-0.343 0.55-0.41v0c1.48-0.287 3.01-0.583 4.59-0.89 1.58-0.3 3.11-0.687 4.59-1.16v0c0.133 0 0.21 0.02 0.23 0.06 0.027 0.047 0.04 0.11 0.04 0.19v0c0 0.033-0.003 0.08-0.01 0.14-0.013 0.067-0.04 0.213-0.08 0.44-0.04 0.233-0.097 0.58-0.17 1.04-0.073 0.467-0.173 1.113-0.3 1.94v0c0.747-0.587 1.573-1.123 2.48-1.61 0.9-0.487 1.807-0.907 2.72-1.26 0.907-0.347 1.783-0.623 2.63-0.83 0.847-0.2 1.59-0.3 2.23-0.3zM70.63-27.25v0c1.547 0 2.95 0.29 4.21 0.87 1.26 0.58 2.343 1.33 3.25 2.25 0.9 0.92 1.597 1.95 2.09 3.09 0.487 1.133 0.73 2.27 0.73 3.41v0c0 1.013-0.31 2.027-0.93 3.04-0.62 1.02-1.487 1.937-2.6 2.75-1.113 0.813-2.453 1.473-4.02 1.98-1.56 0.5-3.277 0.75-5.15 0.75v0c-0.973 0-1.997-0.097-3.07-0.29v0c0.06 0.7 0.263 1.303 0.61 1.81 0.34 0.5 0.77 0.913 1.29 1.24 0.52 0.327 1.11 0.567 1.77 0.72 0.66 0.153 1.34 0.23 2.04 0.23v0c0.78 0 1.533-0.067 2.26-0.2 0.72-0.14 1.417-0.323 2.09-0.55 0.667-0.227 1.307-0.48 1.92-0.76 0.62-0.273 1.207-0.55 1.76-0.83v0c0.147-0.033 0.273-0.06 0.38-0.08 0.107-0.027 0.21-0.04 0.31-0.04v0c0 0-0.007 0.13-0.02 0.39-0.007 0.26-0.01 0.627-0.01 1.1 0 0.473-0.003 1.043-0.01 1.71-0.007 0.667-0.02 1.407-0.04 2.22v0c0.053 0.08 0.087 0.16 0.1 0.24 0.013 0.08 0.02 0.147 0.02 0.2v0c0 0.193-0.177 0.403-0.53 0.63-0.36 0.227-0.83 0.463-1.41 0.71-0.573 0.247-1.23 0.483-1.97 0.71-0.747 0.227-1.5 0.433-2.26 0.62-0.767 0.187-1.507 0.333-2.22 0.44-0.72 0.107-1.347 0.16-1.88 0.16v0c-1.76 0-3.467-0.307-5.12-0.92-1.653-0.607-3.117-1.48-4.39-2.62-1.28-1.14-2.303-2.523-3.07-4.15-0.76-1.627-1.14-3.457-1.14-5.49v0c0-2.133 0.363-4.133 1.09-6 0.733-1.86 1.763-3.483 3.09-4.87 1.327-1.38 2.91-2.47 4.75-3.27 1.84-0.8 3.867-1.2 6.08-1.2zM70.34-20.75v0c-0.667 0-1.283 0.143-1.85 0.43-0.56 0.28-1.07 0.687-1.53 1.22-0.467 0.527-0.87 1.16-1.21 1.9-0.347 0.74-0.623 1.557-0.83 2.45v0c1.673-0.293 3.063-0.6 4.17-0.92 1.107-0.327 1.993-0.657 2.66-0.99 0.667-0.333 1.14-0.667 1.42-1 0.273-0.333 0.41-0.657 0.41-0.97v0c0-0.293-0.11-0.57-0.33-0.83-0.22-0.26-0.49-0.487-0.81-0.68-0.327-0.193-0.683-0.343-1.07-0.45-0.38-0.107-0.723-0.16-1.03-0.16zM111.4-27.66l-2.51 22.75c-0.02 0.067-0.03 0.13-0.03 0.19 0 0.053 0 0.103 0 0.15v0c0 0.407 0.067 0.747 0.2 1.02 0.127 0.267 0.267 0.487 0.42 0.66 0.16 0.167 0.303 0.303 0.43 0.41 0.133 0.107 0.2 0.2 0.2 0.28v0c0 0.227-0.243 0.44-0.73 0.64v0l-6.57 2.81c-0.02 0.013-0.077 0.02-0.17 0.02v0c-0.133 0-0.263-0.113-0.39-0.34-0.133-0.227-0.26-0.517-0.38-0.87-0.127-0.347-0.24-0.72-0.34-1.12-0.107-0.4-0.2-0.77-0.28-1.11v0c-1.027 1.187-2.137 2.057-3.33 2.61-1.187 0.553-2.367 0.83-3.54 0.83v0c-1.367 0-2.7-0.3-4-0.9-1.3-0.607-2.457-1.467-3.47-2.58-1.007-1.113-1.817-2.46-2.43-4.04-0.607-1.58-0.91-3.353-0.91-5.32v0c0-2.327 0.337-4.45 1.01-6.37 0.68-1.927 1.597-3.58 2.75-4.96 1.153-1.387 2.5-2.457 4.04-3.21 1.54-0.76 3.17-1.14 4.89-1.14v0c1.227 0 2.383 0.25 3.47 0.75 1.093 0.493 2.127 1.133 3.1 1.92v0c0.1-0.493 0.157-0.887 0.17-1.18 0.02-0.293 0.057-0.52 0.11-0.68 0.06-0.16 0.17-0.27 0.33-0.33 0.167-0.06 0.437-0.103 0.81-0.13v0c1.173-0.167 2.34-0.32 3.5-0.46 1.167-0.133 2.383-0.233 3.65-0.3zM100.56-6.88l1.03-7.23c0.16-0.927 0.27-1.803 0.33-2.63 0.053-0.82 0.097-1.57 0.13-2.25v0c-0.26-0.2-0.54-0.403-0.84-0.61-0.3-0.213-0.627-0.413-0.98-0.6-0.347-0.187-0.713-0.337-1.1-0.45-0.38-0.12-0.783-0.18-1.21-0.18v0c-0.873 0-1.607 0.287-2.2 0.86-0.6 0.567-1.083 1.267-1.45 2.1-0.36 0.827-0.62 1.707-0.78 2.64-0.153 0.927-0.23 1.747-0.23 2.46v0c0 2.573 0.337 4.457 1.01 5.65 0.68 1.2 1.62 1.8 2.82 1.8v0c0.493 0 1.04-0.14 1.64-0.42 0.6-0.273 1.21-0.653 1.83-1.14zM132.13-18.82h-4.54c-0.227 1.707-0.443 3.41-0.65 5.11-0.2 1.7-0.327 3.29-0.38 4.77v0c0 0.64 0.05 1.17 0.15 1.59 0.1 0.427 0.243 0.76 0.43 1 0.187 0.247 0.41 0.423 0.67 0.53 0.26 0.107 0.553 0.16 0.88 0.16v0c0.52 0 1.09-0.08 1.71-0.24 0.613-0.153 1.23-0.35 1.85-0.59v0c0.193-0.087 0.36-0.15 0.5-0.19 0.14-0.04 0.26-0.06 0.36-0.06v0c0.16 0 0.27 0.073 0.33 0.22 0.053 0.147 0.11 0.403 0.17 0.77 0.053 0.367 0.137 0.86 0.25 1.48 0.113 0.62 0.3 1.4 0.56 2.34v0c0.02 0.08 0.033 0.15 0.04 0.21 0.007 0.053 0.01 0.107 0.01 0.16v0c0 0.227-0.083 0.39-0.25 0.49-0.173 0.093-0.457 0.207-0.85 0.34v0c-0.667 0.227-1.37 0.457-2.11 0.69-0.74 0.24-1.473 0.457-2.2 0.65-0.72 0.193-1.413 0.353-2.08 0.48-0.667 0.12-1.253 0.18-1.76 0.18v0c-2.72 0-4.703-0.677-5.95-2.03-1.24-1.347-1.86-3.403-1.86-6.17v0c0-0.473 0.017-0.96 0.05-1.46 0.027-0.493 0.067-1.01 0.12-1.55v0c0.16-1.627 0.303-3.167 0.43-4.62 0.12-1.46 0.243-2.857 0.37-4.19v0h-2.56c-0.88 0-1.513-0.037-1.9-0.11-0.393-0.073-0.59-0.223-0.59-0.45v0c0-0.067 0.08-0.243 0.24-0.53 0.167-0.28 0.377-0.62 0.63-1.02 0.253-0.4 0.523-0.827 0.81-1.28 0.293-0.46 0.577-0.89 0.85-1.29 0.267-0.393 0.497-0.737 0.69-1.03 0.2-0.293 0.323-0.473 0.37-0.54v0h1.73c0.147-1.24 0.267-2.277 0.36-3.11 0.087-0.84 0.16-1.537 0.22-2.09 0.053-0.553 0.103-0.98 0.15-1.28 0.053-0.3 0.107-0.523 0.16-0.67 0.06-0.147 0.133-0.24 0.22-0.28 0.093-0.047 0.213-0.083 0.36-0.11v0c0.733-0.147 1.44-0.283 2.12-0.41 0.687-0.12 1.37-0.247 2.05-0.38 0.687-0.127 1.383-0.277 2.09-0.45 0.707-0.167 1.443-0.367 2.21-0.6v0c0.047 0 0.08-0.003 0.1-0.01 0.013-0.007 0.043-0.01 0.09-0.01v0c0.2 0 0.3 0.067 0.3 0.2v0 0.04c-0.08 0.9-0.207 2.147-0.38 3.74-0.173 1.593-0.363 3.4-0.57 5.42v0h6.54c0.127 0 0.253 0.043 0.38 0.13 0.12 0.093 0.18 0.247 0.18 0.46v0c0 0.08-0.097 0.37-0.29 0.87-0.2 0.507-0.477 1.167-0.83 1.98v0l-0.88 1.98c-0.113 0.247-0.233 0.427-0.36 0.54-0.12 0.113-0.367 0.187-0.74 0.22zM137.87-10.35v0c0.207-2.233 0.417-4.44 0.63-6.62 0.213-2.18 0.4-4.417 0.56-6.71v0c0.033-0.54 0.087-0.91 0.16-1.11 0.073-0.207 0.257-0.343 0.55-0.41v0c1.387-0.273 2.837-0.56 4.35-0.86 1.513-0.3 2.977-0.687 4.39-1.16v0c0.047-0.02 0.12-0.03 0.22-0.03v0c0.18 0 0.27 0.067 0.27 0.2v0l-2.2 23.78c-0.047 0.533-0.103 0.903-0.17 1.11-0.067 0.2-0.247 0.333-0.54 0.4v0c-1.38 0.427-2.78 0.9-4.2 1.42-1.413 0.52-2.91 1.05-4.49 1.59v0c-0.047 0.013-0.12 0.02-0.22 0.02v0c-0.18 0-0.27-0.08-0.27-0.24v0c0-0.02 0.017-0.24 0.05-0.66 0.033-0.427 0.08-0.973 0.14-1.64 0.053-0.667 0.113-1.417 0.18-2.25 0.067-0.827 0.137-1.657 0.21-2.49 0.073-0.827 0.143-1.623 0.21-2.39 0.06-0.767 0.117-1.417 0.17-1.95zM139.7-29.83v0c0.047-0.7 0.083-1.24 0.11-1.62 0.02-0.373 0.04-0.653 0.06-0.84 0.013-0.187 0.02-0.303 0.02-0.35 0-0.047 0.003-0.083 0.01-0.11 0.013-0.027 0.023-0.077 0.03-0.15 0.007-0.073 0.02-0.227 0.04-0.46 0.013-0.24 0.037-0.587 0.07-1.04 0.033-0.453 0.083-1.08 0.15-1.88v0c0.027-0.533 0.077-0.903 0.15-1.11 0.073-0.207 0.257-0.34 0.55-0.4v0c1.387-0.28 2.837-0.57 4.35-0.87 1.513-0.3 2.977-0.687 4.39-1.16v0c0.053-0.013 0.127-0.02 0.22-0.02v0c0.053 0.093 0.12 0.157 0.2 0.19v0l0.07 0.05-0.54 6.69c-0.047 0.54-0.107 0.913-0.18 1.12-0.073 0.213-0.247 0.343-0.52 0.39v0c-1.387 0.26-2.787 0.547-4.2 0.86-1.42 0.307-2.917 0.617-4.49 0.93v0c-0.053 0.013-0.127 0.02-0.22 0.02v0c-0.18 0-0.27-0.08-0.27-0.24zM170.12-27v0c0.06-0.167 0.18-0.25 0.36-0.25v0c0.033 0 0.067 0.007 0.1 0.02 0.033 0.007 0.067 0.01 0.1 0.01v0c1.22 0.473 2.473 0.86 3.76 1.16 1.287 0.3 2.563 0.587 3.83 0.86v0c0.313 0.067 0.47 0.247 0.47 0.54v0c0 0.213-0.1 0.54-0.3 0.98v0l-10.06 21.39c-0.127 0.287-0.24 0.52-0.34 0.7-0.093 0.18-0.19 0.327-0.29 0.44-0.1 0.113-0.207 0.197-0.32 0.25-0.113 0.047-0.25 0.087-0.41 0.12v0c-1.24 0.24-2.493 0.52-3.76 0.84-1.273 0.32-2.593 0.717-3.96 1.19v0c-0.033 0-0.057 0.003-0.07 0.01-0.02 0.007-0.037 0.01-0.05 0.01v0h-0.17c-0.08 0-0.147-0.03-0.2-0.09-0.047-0.053-0.077-0.103-0.09-0.15v0c-0.247-0.7-0.53-1.603-0.85-2.71-0.313-1.107-0.657-2.347-1.03-3.72-0.38-1.367-0.773-2.823-1.18-4.37-0.407-1.54-0.82-3.11-1.24-4.71-0.427-1.593-0.847-3.177-1.26-4.75-0.413-1.567-0.817-3.05-1.21-4.45v0c-0.147-0.507-0.22-0.867-0.22-1.08v0c0-0.227 0.13-0.373 0.39-0.44v0c1.273-0.273 2.593-0.56 3.96-0.86 1.367-0.3 2.66-0.687 3.88-1.16v0c0.047-0.02 0.12-0.03 0.22-0.03v0c0.213 0 0.327 0.083 0.34 0.25v0l3.23 16.4c0.08-0.193 0.217-0.547 0.41-1.06 0.193-0.513 0.43-1.127 0.71-1.84 0.273-0.72 0.577-1.51 0.91-2.37 0.333-0.86 0.677-1.74 1.03-2.64 0.347-0.893 0.693-1.783 1.04-2.67 0.34-0.887 0.66-1.713 0.96-2.48 0.3-0.76 0.563-1.433 0.79-2.02 0.233-0.587 0.407-1.027 0.52-1.32zM193.77-27.25v0c1.547 0 2.953 0.29 4.22 0.87 1.26 0.58 2.34 1.33 3.24 2.25 0.907 0.92 1.603 1.95 2.09 3.09 0.487 1.133 0.73 2.27 0.73 3.41v0c0 1.013-0.307 2.027-0.92 3.04-0.62 1.02-1.49 1.937-2.61 2.75-1.113 0.813-2.45 1.473-4.01 1.98-1.56 0.5-3.277 0.75-5.15 0.75v0c-0.98 0-2.007-0.097-3.08-0.29v0c0.067 0.7 0.27 1.303 0.61 1.81 0.34 0.5 0.773 0.913 1.3 1.24 0.52 0.327 1.11 0.567 1.77 0.72 0.653 0.153 1.33 0.23 2.03 0.23v0c0.787 0 1.54-0.067 2.26-0.2 0.727-0.14 1.423-0.323 2.09-0.55 0.667-0.227 1.31-0.48 1.93-0.76 0.62-0.273 1.207-0.55 1.76-0.83v0c0.147-0.033 0.27-0.06 0.37-0.08 0.107-0.027 0.21-0.04 0.31-0.04v0c0 0-0.003 0.13-0.01 0.39-0.007 0.26-0.01 0.627-0.01 1.1 0 0.473-0.007 1.043-0.02 1.71-0.007 0.667-0.017 1.407-0.03 2.22v0c0.047 0.08 0.077 0.16 0.09 0.24 0.02 0.08 0.03 0.147 0.03 0.2v0c0 0.193-0.18 0.403-0.54 0.63-0.36 0.227-0.827 0.463-1.4 0.71-0.58 0.247-1.24 0.483-1.98 0.71-0.74 0.227-1.493 0.433-2.26 0.62-0.767 0.187-1.507 0.333-2.22 0.44-0.713 0.107-1.34 0.16-1.88 0.16v0c-1.76 0-3.463-0.307-5.11-0.92-1.653-0.607-3.12-1.48-4.4-2.62-1.28-1.14-2.3-2.523-3.06-4.15-0.767-1.627-1.15-3.457-1.15-5.49v0c0-2.133 0.367-4.133 1.1-6 0.733-1.86 1.763-3.483 3.09-4.87 1.327-1.38 2.91-2.47 4.75-3.27 1.833-0.8 3.857-1.2 6.07-1.2zM193.48-20.75v0c-0.667 0-1.28 0.143-1.84 0.43-0.56 0.28-1.073 0.687-1.54 1.22-0.467 0.527-0.87 1.16-1.21 1.9-0.34 0.74-0.617 1.557-0.83 2.45v0c1.68-0.293 3.073-0.6 4.18-0.92 1.107-0.327 1.993-0.657 2.66-0.99 0.667-0.333 1.137-0.667 1.41-1 0.28-0.333 0.42-0.657 0.42-0.97v0c0-0.293-0.11-0.57-0.33-0.83-0.22-0.26-0.493-0.487-0.82-0.68-0.327-0.193-0.68-0.343-1.06-0.45-0.38-0.107-0.727-0.16-1.04-0.16z" fill="#ff8011" fill-rule="nonzero" stroke="none" stroke-width="1" stroke-linecap="butt" stroke-linejoin="miter" stroke-miterlimit="10" stroke-dasharray="" stroke-dashoffset="0" font-family="none" font-weight="none" font-size="none" text-anchor="none" style="mix-blend-mode: normal" data-fill-palette-color="primary" opacity="1"></path><path transform="translate(0,44.11)" d="M27.47-33.89l7.61-2.05c0.087-0.013 0.163-0.023 0.23-0.03 0.073-0.013 0.143-0.02 0.21-0.02v0c0.293 0 0.53 0.093 0.71 0.28 0.18 0.193 0.303 0.523 0.37 0.99v0c0.033 0.293 0.087 0.707 0.16 1.24 0.073 0.527 0.153 1.11 0.24 1.75 0.087 0.647 0.183 1.31 0.29 1.99 0.107 0.687 0.2 1.32 0.28 1.9 0.087 0.573 0.16 1.07 0.22 1.49 0.067 0.413 0.11 0.677 0.13 0.79v0c0.353 2.88 0.67 5.19 0.95 6.93 0.273 1.74 0.467 3.027 0.58 3.86v0l1.64 13.21-0.25 0.75c-0.027 0.12-0.237 0.26-0.63 0.42-0.393 0.16-0.867 0.333-1.42 0.52-0.553 0.193-1.153 0.377-1.8 0.55-0.653 0.18-1.257 0.343-1.81 0.49-0.553 0.147-1.02 0.267-1.4 0.36-0.387 0.087-0.587 0.13-0.6 0.13v0c-0.393 0-0.703-0.283-0.93-0.85-0.227-0.573-0.413-1.3-0.56-2.18-0.147-0.88-0.263-1.84-0.35-2.88-0.093-1.04-0.197-2.04-0.31-3v0c-0.1-0.8-0.19-1.607-0.27-2.42-0.08-0.813-0.17-1.643-0.27-2.49v0l-0.95-7.13-9.06 16.58c-0.273 0.393-0.55 0.673-0.83 0.84-0.273 0.173-0.533 0.26-0.78 0.26v0c-0.36 0-0.64-0.107-0.84-0.32-0.207-0.213-0.35-0.473-0.43-0.78v0c-0.307-1.027-0.57-1.893-0.79-2.6-0.22-0.707-0.423-1.353-0.61-1.94-0.187-0.587-0.363-1.157-0.53-1.71-0.16-0.553-0.343-1.193-0.55-1.92-0.2-0.72-0.427-1.573-0.68-2.56-0.253-0.987-0.557-2.197-0.91-3.63v0l-0.76 3.52-3.52 14.92c-0.047 0.193-0.25 0.29-0.61 0.29v0c-0.34 0-0.807-0.067-1.4-0.2-0.593-0.127-1.213-0.283-1.86-0.47-0.64-0.187-1.267-0.383-1.88-0.59-0.607-0.2-1.09-0.383-1.45-0.55v0c-0.08-0.033-0.18-0.11-0.3-0.23-0.127-0.12-0.19-0.31-0.19-0.57v0c0-0.067 0.027-0.207 0.08-0.42 0.047-0.207 0.107-0.453 0.18-0.74 0.073-0.287 0.153-0.577 0.24-0.87 0.093-0.293 0.18-0.553 0.26-0.78v0c0.213-0.553 0.403-1.203 0.57-1.95 0.173-0.753 0.333-1.51 0.48-2.27 0.147-0.767 0.28-1.5 0.4-2.2 0.127-0.7 0.247-1.287 0.36-1.76v0l3-14.01 0.9-3.96c0.113-0.5 0.223-0.99 0.33-1.47 0.107-0.48 0.2-0.917 0.28-1.31 0.08-0.393 0.147-0.71 0.2-0.95 0.047-0.247 0.07-0.387 0.07-0.42v0l6.1-1.88c0.233 0 0.433 0.02 0.6 0.06 0.173 0.04 0.283 0.177 0.33 0.41v0l4.86 15.62zM71.88-27.66l-2.52 22.75c-0.013 0.067-0.02 0.13-0.02 0.19 0 0.053 0 0.103 0 0.15v0c0 0.407 0.063 0.747 0.19 1.02 0.133 0.267 0.277 0.487 0.43 0.66 0.153 0.167 0.297 0.303 0.43 0.41 0.127 0.107 0.19 0.2 0.19 0.28v0c0 0.227-0.243 0.44-0.73 0.64v0l-6.57 2.81c-0.013 0.013-0.07 0.02-0.17 0.02v0c-0.127 0-0.257-0.113-0.39-0.34-0.133-0.227-0.26-0.517-0.38-0.87-0.12-0.347-0.233-0.72-0.34-1.12-0.107-0.4-0.2-0.77-0.28-1.11v0c-1.027 1.187-2.133 2.057-3.32 2.61-1.187 0.553-2.367 0.83-3.54 0.83v0c-1.367 0-2.703-0.3-4.01-0.9-1.3-0.607-2.453-1.467-3.46-2.58-1.013-1.113-1.823-2.46-2.43-4.04-0.613-1.58-0.92-3.353-0.92-5.32v0c0-2.327 0.34-4.45 1.02-6.37 0.673-1.927 1.587-3.58 2.74-4.96 1.16-1.387 2.507-2.457 4.04-3.21 1.54-0.76 3.173-1.14 4.9-1.14v0c1.22 0 2.377 0.25 3.47 0.75 1.087 0.493 2.12 1.133 3.1 1.92v0c0.093-0.493 0.15-0.887 0.17-1.18 0.013-0.293 0.05-0.52 0.11-0.68 0.053-0.16 0.163-0.27 0.33-0.33 0.16-0.06 0.427-0.103 0.8-0.13v0c1.173-0.167 2.343-0.32 3.51-0.46 1.16-0.133 2.377-0.233 3.65-0.3zM61.04-6.88l1.02-7.23c0.16-0.927 0.27-1.803 0.33-2.63 0.06-0.82 0.103-1.57 0.13-2.25v0c-0.26-0.2-0.54-0.403-0.84-0.61-0.3-0.213-0.623-0.413-0.97-0.6-0.353-0.187-0.72-0.337-1.1-0.45-0.387-0.12-0.79-0.18-1.21-0.18v0c-0.88 0-1.617 0.287-2.21 0.86-0.593 0.567-1.073 1.267-1.44 2.1-0.367 0.827-0.627 1.707-0.78 2.64-0.153 0.927-0.23 1.747-0.23 2.46v0c0 2.573 0.337 4.457 1.01 5.65 0.673 1.2 1.613 1.8 2.82 1.8v0c0.487 0 1.03-0.14 1.63-0.42 0.607-0.273 1.22-0.653 1.84-1.14zM92.6-18.82h-4.54c-0.227 1.707-0.443 3.41-0.65 5.11-0.2 1.7-0.323 3.29-0.37 4.77v0c0 0.64 0.047 1.17 0.14 1.59 0.1 0.427 0.243 0.76 0.43 1 0.187 0.247 0.41 0.423 0.67 0.53 0.26 0.107 0.553 0.16 0.88 0.16v0c0.52 0 1.09-0.08 1.71-0.24 0.62-0.153 1.237-0.35 1.85-0.59v0c0.2-0.087 0.37-0.15 0.51-0.19 0.133-0.04 0.25-0.06 0.35-0.06v0c0.16 0 0.27 0.073 0.33 0.22 0.053 0.147 0.11 0.403 0.17 0.77 0.06 0.367 0.147 0.86 0.26 1.48 0.113 0.62 0.3 1.4 0.56 2.34v0c0.013 0.08 0.023 0.15 0.03 0.21 0.013 0.053 0.02 0.107 0.02 0.16v0c0 0.227-0.087 0.39-0.26 0.49-0.173 0.093-0.453 0.207-0.84 0.34v0c-0.667 0.227-1.37 0.457-2.11 0.69-0.74 0.24-1.473 0.457-2.2 0.65-0.727 0.193-1.423 0.353-2.09 0.48-0.667 0.12-1.253 0.18-1.76 0.18v0c-2.713 0-4.693-0.677-5.94-2.03-1.247-1.347-1.87-3.403-1.87-6.17v0c0-0.473 0.017-0.96 0.05-1.46 0.033-0.493 0.073-1.01 0.12-1.55v0c0.167-1.627 0.31-3.167 0.43-4.62 0.12-1.46 0.247-2.857 0.38-4.19v0h-2.57c-0.873 0-1.507-0.037-1.9-0.11-0.393-0.073-0.59-0.223-0.59-0.45v0c0-0.067 0.083-0.243 0.25-0.53 0.16-0.28 0.367-0.62 0.62-1.02 0.253-0.4 0.527-0.827 0.82-1.28 0.293-0.46 0.573-0.89 0.84-1.29 0.267-0.393 0.5-0.737 0.7-1.03 0.193-0.293 0.313-0.473 0.36-0.54v0h1.74c0.147-1.24 0.263-2.277 0.35-3.11 0.087-0.84 0.16-1.537 0.22-2.09 0.06-0.553 0.113-0.98 0.16-1.28 0.047-0.3 0.1-0.523 0.16-0.67 0.053-0.147 0.127-0.24 0.22-0.28 0.087-0.047 0.203-0.083 0.35-0.11v0c0.733-0.147 1.44-0.283 2.12-0.41 0.687-0.12 1.373-0.247 2.06-0.38 0.68-0.127 1.373-0.277 2.08-0.45 0.713-0.167 1.45-0.367 2.21-0.6v0c0.053 0 0.087-0.003 0.1-0.01 0.013-0.007 0.047-0.01 0.1-0.01v0c0.193 0 0.29 0.067 0.29 0.2v0 0.04c-0.08 0.9-0.207 2.147-0.38 3.74-0.167 1.593-0.357 3.4-0.57 5.42v0h6.54c0.133 0 0.26 0.043 0.38 0.13 0.12 0.093 0.18 0.247 0.18 0.46v0c0 0.08-0.097 0.37-0.29 0.87-0.193 0.507-0.47 1.167-0.83 1.98v0l-0.88 1.98c-0.113 0.247-0.23 0.427-0.35 0.54-0.127 0.113-0.377 0.187-0.75 0.22zM111.89-27.25v0c1.547 0 2.95 0.29 4.21 0.87 1.26 0.58 2.343 1.33 3.25 2.25 0.9 0.92 1.597 1.95 2.09 3.09 0.487 1.133 0.73 2.27 0.73 3.41v0c0 1.013-0.31 2.027-0.93 3.04-0.62 1.02-1.487 1.937-2.6 2.75-1.113 0.813-2.453 1.473-4.02 1.98-1.56 0.5-3.277 0.75-5.15 0.75v0c-0.973 0-1.997-0.097-3.07-0.29v0c0.06 0.7 0.263 1.303 0.61 1.81 0.34 0.5 0.77 0.913 1.29 1.24 0.52 0.327 1.11 0.567 1.77 0.72 0.66 0.153 1.34 0.23 2.04 0.23v0c0.78 0 1.533-0.067 2.26-0.2 0.72-0.14 1.417-0.323 2.09-0.55 0.667-0.227 1.307-0.48 1.92-0.76 0.62-0.273 1.207-0.55 1.76-0.83v0c0.147-0.033 0.273-0.06 0.38-0.08 0.107-0.027 0.21-0.04 0.31-0.04v0c0 0-0.007 0.13-0.02 0.39-0.007 0.26-0.01 0.627-0.01 1.1 0 0.473-0.003 1.043-0.01 1.71-0.007 0.667-0.02 1.407-0.04 2.22v0c0.053 0.08 0.087 0.16 0.1 0.24 0.013 0.08 0.02 0.147 0.02 0.2v0c0 0.193-0.177 0.403-0.53 0.63-0.36 0.227-0.83 0.463-1.41 0.71-0.573 0.247-1.23 0.483-1.97 0.71-0.747 0.227-1.5 0.433-2.26 0.62-0.767 0.187-1.507 0.333-2.22 0.44-0.72 0.107-1.347 0.16-1.88 0.16v0c-1.76 0-3.467-0.307-5.12-0.92-1.653-0.607-3.117-1.48-4.39-2.62-1.28-1.14-2.303-2.523-3.07-4.15-0.76-1.627-1.14-3.457-1.14-5.49v0c0-2.133 0.363-4.133 1.09-6 0.733-1.86 1.763-3.483 3.09-4.87 1.327-1.38 2.91-2.47 4.75-3.27 1.84-0.8 3.867-1.2 6.08-1.2zM111.6-20.75v0c-0.667 0-1.283 0.143-1.85 0.43-0.56 0.28-1.07 0.687-1.53 1.22-0.467 0.527-0.87 1.16-1.21 1.9-0.347 0.74-0.623 1.557-0.83 2.45v0c1.673-0.293 3.063-0.6 4.17-0.92 1.107-0.327 1.993-0.657 2.66-0.99 0.667-0.333 1.14-0.667 1.42-1 0.273-0.333 0.41-0.657 0.41-0.97v0c0-0.293-0.11-0.57-0.33-0.83-0.22-0.26-0.49-0.487-0.81-0.68-0.327-0.193-0.683-0.343-1.07-0.45-0.38-0.107-0.723-0.16-1.03-0.16z" fill="#ff8011" fill-rule="nonzero" stroke="none" stroke-width="1" stroke-linecap="butt" stroke-linejoin="miter" stroke-miterlimit="10" stroke-dasharray="" stroke-dashoffset="0" font-family="none" font-weight="none" font-size="none" text-anchor="none" style="mix-blend-mode: normal" data-fill-palette-color="primary" opacity="1"></path></g></svg></g></svg></g></svg></g></svg></g><g transform="matrix(1,0,0,1,0,0.4340726297375994)"><svg viewBox="0 0 165.42557072389948 173.62905189504372" height="173.62905189504372" width="165.42557072389948"><g><svg xmlns="http://www.w3.org/2000/svg" xmlns:xlink="http://www.w3.org/1999/xlink" version="1.1" x="0" y="0" viewBox="18 17.974999999999998 61 64.025" style="enable-background:new 0 0 100 100;" xml:space="preserve" height="173.62905189504372" width="165.42557072389948" class="icon-icon-0" data-fill-palette-color="accent" id="icon-0"><path d="M46.5 79.5c9.6 0 18.4-4.8 23.7-12.7C71.5 82 72.9 82 74 82c1.2 0 2.7 0 4-18.1 0.6-8.5 0.9-17.1 1-19.9 0 0 0 0 0 0 0 0 0 0 0 0 0-0.2 0-0.4 0-0.5 0-3.6 0-8.5-5-8.5s-5 4.9-5 8.5c0 0.1 0 0.3 0 0.5 0 0 0 0 0 0 0 0 0 0 0 0 0 0.3 0 0.6 0 0.9-0.7-0.1-1.5-0.1-2.2-0.2-3.4-0.2-7.2-0.5-10.1-3.4-2.9-2.9-3.2-6.7-3.5-10.1-0.4-4.3-0.7-8.7-6.7-8.7C30.8 22.5 18 35.3 18 51S30.8 79.5 46.5 79.5zM74 79.4c-1.4-4-2.5-20.7-2.9-30.4h5.7C76.5 58.7 75.4 75.4 74 79.4zM76.9 47h-5.9c0-0.7 0-1.4 0-2h6C77 45.6 77 46.3 76.9 47zM74 37c2.3 0 3 1.3 3 6h-6C71 38.3 71.7 37 74 37zM46.5 24.5c4 0 4.3 2.2 4.7 6.8 0.3 3.6 0.7 8 4.1 11.4 3.4 3.4 7.8 3.8 11.3 4 0.9 0.1 1.7 0.1 2.4 0.2 0.1 3.9 0.4 10.2 0.9 16.4-4.6 8.7-13.6 14.1-23.4 14.1C31.9 77.5 20 65.6 20 51S31.9 24.5 46.5 24.5z" fill="#f1731d" data-fill-palette-color="accent"></path><path d="M38 41c2.8 0 5-2.2 5-5s-2.2-5-5-5-5 2.2-5 5S35.2 41 38 41zM38 33c1.7 0 3 1.3 3 3s-1.3 3-3 3-3-1.3-3-3S36.3 33 38 33z" fill="#f1731d" data-fill-palette-color="accent"></path><path d="M35 47c0-2.8-2.2-5-5-5s-5 2.2-5 5 2.2 5 5 5S35 49.8 35 47zM27 47c0-1.7 1.3-3 3-3s3 1.3 3 3-1.3 3-3 3S27 48.7 27 47z" fill="#f1731d" data-fill-palette-color="accent"></path><path d="M33 56c-2.8 0-5 2.2-5 5s2.2 5 5 5 5-2.2 5-5S35.8 56 33 56zM33 64c-1.7 0-3-1.3-3-3s1.3-3 3-3 3 1.3 3 3S34.7 64 33 64z" fill="#f1731d" data-fill-palette-color="accent"></path><path d="M39 70c0 2.8 2.2 5 5 5s5-2.2 5-5-2.2-5-5-5S39 67.2 39 70zM44 67c1.7 0 3 1.3 3 3s-1.3 3-3 3-3-1.3-3-3S42.3 67 44 67z" fill="#f1731d" data-fill-palette-color="accent"></path><path d="M71.5 23.3c-1.1 1-2.5 2.3-2.5 4.7 0 2.8 2.2 5 5 5s5-2.2 5-5c0-2.3 0-6.5-4.4-9.8-0.3-0.3-0.8-0.3-1.1 0s-0.5 0.7-0.4 1.1C73.5 21.4 72.7 22.2 71.5 23.3zM72.8 24.8c0.9-0.8 1.9-1.8 2.3-3.4C77 23.7 77 26.3 77 28c0 1.7-1.3 3-3 3s-3-1.3-3-3C71 26.4 71.8 25.7 72.8 24.8z" fill="#f1731d" data-fill-palette-color="accent"></path></svg></g></svg></g></svg></g><defs></defs></svg><rect width="395.52" height="113.80622648238354" fill="none" stroke="none" visibility="hidden"></rect></g></svg></g></svg>