<svg xmlns="http://www.w3.org/2000/svg" version="1.1" xmlns:xlink="http://www.w3.org/1999/xlink" xmlns:svgjs="http://svgjs.dev/svgjs" width="2000" height="707" viewBox="0 0 2000 707"><g transform="matrix(1,0,0,1,-1.2121212121212466,-1.0278944336319569)"><svg viewBox="0 0 396 140" data-background-color="#f1ede4" preserveAspectRatio="xMidYMid meet" height="707" width="2000" xmlns="http://www.w3.org/2000/svg" xmlns:xlink="http://www.w3.org/1999/xlink"><g id="tight-bounds" transform="matrix(1,0,0,1,0.2400000000000091,0.2035434522043431)"><svg viewBox="0 0 395.52 139.59291309559134" height="139.59291309559134" width="395.52"><g><svg viewBox="0 0 569.509713903311 200.99999999999994" height="139.59291309559134" width="395.52"><g><rect width="8.460856864263645" height="200.99999999999994" x="206.56222099373323" y="0" fill="#de5f16" opacity="1" stroke-width="0" stroke="transparent" fill-opacity="1" class="rect-qz-0" data-fill-palette-color="primary" rx="1%" id="qz-0" data-palette-color="#de5f16"></rect></g><g transform="matrix(1,0,0,1,237.17191781680222,0.4999999999999858)"><svg viewBox="0 0 332.33779608650866 199.99999999999997" height="199.99999999999997" width="332.33779608650866"><g id="textblocktransform"><svg viewBox="0 0 332.33779608650866 199.99999999999997" height="199.99999999999997" width="332.33779608650866" id="textblock"><g><svg viewBox="0 0 332.33779608650866 199.99999999999997" height="199.99999999999997" width="332.33779608650866"><g transform="matrix(1,0,0,1,0,0)"><svg width="332.33779608650866" viewBox="1.5500000000000007 -45.15 161.35000000000002 94.1" height="199.99999999999997" data-palette-color="#de5f16"><svg></svg><svg></svg><g class="wordmark-text-0" data-fill-palette-color="primary" id="text-0"><path d="M11.9 0.4c-3.133 0-5.64-0.983-7.52-2.95-1.887-1.967-2.83-4.667-2.83-8.1v0-19.8c0-4.267 0.85-7.483 2.55-9.65 1.7-2.167 4.367-3.25 8-3.25v0c3.167 0 5.717 0.867 7.65 2.6 1.933 1.733 2.9 4.233 2.9 7.5v0 7.4h-8.55v-6.35c0-1.233-0.15-2.083-0.45-2.55-0.3-0.467-0.817-0.7-1.55-0.7v0c-0.767 0-1.29 0.267-1.57 0.8-0.287 0.533-0.43 1.317-0.43 2.35v0 21.55c0 1.133 0.167 1.957 0.5 2.47 0.333 0.52 0.833 0.78 1.5 0.78v0c1.333 0 2-1.083 2-3.25v0-7.75h8.65v8.1c0 7.2-3.617 10.8-10.85 10.8zM25.45 0v-36.6h8.75v4.05c0.433-1.433 1.193-2.543 2.28-3.33 1.08-0.78 2.42-1.17 4.02-1.17v0 7.3c-1.233 0-2.59 0.173-4.07 0.52-1.487 0.353-2.23 0.763-2.23 1.23v0 28zM52.9 0.4c-3.767 0-6.467-1.033-8.1-3.1-1.633-2.067-2.45-5.15-2.45-9.25v0-14.7c0-3.367 0.967-5.933 2.9-7.7 1.933-1.767 4.633-2.65 8.1-2.65v0c7.033 0 10.55 3.45 10.55 10.35v0 2.65c0 2.667-0.033 4.833-0.1 6.5v0h-12.7v7.1c0 1.267 0.133 2.257 0.4 2.97 0.267 0.72 0.833 1.08 1.7 1.08v0c0.667 0 1.143-0.2 1.43-0.6 0.28-0.4 0.447-0.86 0.5-1.38 0.047-0.513 0.07-1.27 0.07-2.27v0-3.55h8.7v2.1c0 4.267-0.823 7.407-2.47 9.42-1.653 2.02-4.497 3.03-8.53 3.03zM51.05-21.85h4.15v-4.7c0-2.633-0.65-3.95-1.95-3.95v0c-1.467 0-2.2 1.317-2.2 3.95v0zM73.7 0.4c-2.833 0-4.773-0.943-5.82-2.83-1.053-1.88-1.58-4.57-1.58-8.07v0c0-2.867 0.377-5.067 1.13-6.6 0.747-1.533 1.787-2.66 3.12-3.38 1.333-0.713 3.367-1.503 6.1-2.37v0l2.4-0.8v-0.1-3.65c0-0.967-0.19-1.71-0.57-2.23-0.387-0.513-0.847-0.77-1.38-0.77v0c-0.467 0-0.873 0.217-1.22 0.65-0.353 0.433-0.53 1.017-0.53 1.75v0 2.2h-8.5v-1.2c0-3.6 0.843-6.167 2.53-7.7 1.68-1.533 4.42-2.3 8.22-2.3v0c3.033 0 5.5 0.79 7.4 2.37 1.9 1.587 2.85 3.83 2.85 6.73v0 27.9h-8.7v-4.35c-0.433 1.5-1.123 2.667-2.07 3.5-0.953 0.833-2.08 1.25-3.38 1.25zM77.15-6.4c0.667 0 1.143-0.277 1.43-0.83 0.28-0.547 0.42-1.22 0.42-2.02v0-10.2c-1.3 0.5-2.257 1.133-2.87 1.9-0.62 0.767-0.93 1.833-0.93 3.2v0 4.7c0 2.167 0.65 3.25 1.95 3.25zM98.75 0.4c-2.3 0-3.883-0.483-4.75-1.45-0.867-0.967-1.3-2.517-1.3-4.65v0-22.85h-2.45v-6.65h2.45v-7.75h8.5v7.75h2.5v6.65h-2.5v20.55c0 0.633 0.05 1.1 0.15 1.4 0.1 0.3 0.367 0.45 0.8 0.45v0c0.333 0 0.65-0.017 0.95-0.05 0.3-0.033 0.5-0.05 0.6-0.05v0 6c-0.5 0.133-1.223 0.277-2.17 0.43-0.953 0.147-1.88 0.22-2.78 0.22zM115.15-39.05h-8.75v-6.1h8.75zM115.15 0h-8.75v-36.6h8.75zM133.4 0h-10.15l-5.85-36.6h8.75l1.8 18.5 0.3 5.95 0.35-6 2-18.45h8.75zM151.9 0.4c-3.767 0-6.467-1.033-8.1-3.1-1.633-2.067-2.45-5.15-2.45-9.25v0-14.7c0-3.367 0.967-5.933 2.9-7.7 1.933-1.767 4.633-2.65 8.1-2.65v0c7.033 0 10.55 3.45 10.55 10.35v0 2.65c0 2.667-0.033 4.833-0.1 6.5v0h-12.7v7.1c0 1.267 0.133 2.257 0.4 2.97 0.267 0.72 0.833 1.08 1.7 1.08v0c0.667 0 1.143-0.2 1.43-0.6 0.28-0.4 0.447-0.86 0.5-1.38 0.047-0.513 0.07-1.27 0.07-2.27v0-3.55h8.7v2.1c0 4.267-0.823 7.407-2.47 9.42-1.653 2.02-4.497 3.03-8.53 3.03zM150.05-21.85h4.15v-4.7c0-2.633-0.65-3.95-1.95-3.95v0c-1.467 0-2.2 1.317-2.2 3.95v0z" fill="#de5f16" fill-rule="nonzero" stroke="none" stroke-width="1" stroke-linecap="butt" stroke-linejoin="miter" stroke-miterlimit="10" stroke-dasharray="" stroke-dashoffset="0" font-family="none" font-weight="none" font-size="none" text-anchor="none" style="mix-blend-mode: normal" data-fill-palette-color="primary" opacity="1"></path><path transform="translate(0,48.55)" d="M9.65 0h-7.75v-42.95h13.1l3.6 26.2 3.6-26.2h13.2v42.95h-7.85v-30.95l-4.95 30.95h-7.7l-5.25-30.95zM45.7 0.4c-2.833 0-4.773-0.943-5.82-2.83-1.053-1.88-1.58-4.57-1.58-8.07v0c0-2.867 0.377-5.067 1.13-6.6 0.747-1.533 1.787-2.66 3.12-3.38 1.333-0.713 3.367-1.503 6.1-2.37v0l2.4-0.8v-0.1-3.65c0-0.967-0.19-1.71-0.57-2.23-0.387-0.513-0.847-0.77-1.38-0.77v0c-0.467 0-0.873 0.217-1.22 0.65-0.353 0.433-0.53 1.017-0.53 1.75v0 2.2h-8.5v-1.2c0-3.6 0.843-6.167 2.53-7.7 1.68-1.533 4.42-2.3 8.22-2.3v0c3.033 0 5.5 0.79 7.4 2.37 1.9 1.587 2.85 3.83 2.85 6.73v0 27.9h-8.7v-4.35c-0.433 1.5-1.123 2.667-2.07 3.5-0.953 0.833-2.08 1.25-3.38 1.25zM49.15-6.4c0.667 0 1.143-0.277 1.43-0.83 0.28-0.547 0.42-1.22 0.42-2.02v0-10.2c-1.3 0.5-2.257 1.133-2.87 1.9-0.62 0.767-0.93 1.833-0.93 3.2v0 4.7c0 2.167 0.65 3.25 1.95 3.25zM70.75 0.4c-2.3 0-3.883-0.483-4.75-1.45-0.867-0.967-1.3-2.517-1.3-4.65v0-22.85h-2.45v-6.65h2.45v-7.75h8.5v7.75h2.5v6.65h-2.5v20.55c0 0.633 0.05 1.1 0.15 1.4 0.1 0.3 0.367 0.45 0.8 0.45v0c0.333 0 0.65-0.017 0.95-0.05 0.3-0.033 0.5-0.05 0.6-0.05v0 6c-0.5 0.133-1.223 0.277-2.17 0.43-0.953 0.147-1.88 0.22-2.78 0.22zM88.7 0.4c-3.767 0-6.467-1.033-8.1-3.1-1.633-2.067-2.45-5.15-2.45-9.25v0-14.7c0-3.367 0.967-5.933 2.9-7.7 1.933-1.767 4.633-2.65 8.1-2.65v0c7.033 0 10.55 3.45 10.55 10.35v0 2.65c0 2.667-0.033 4.833-0.1 6.5v0h-12.7v7.1c0 1.267 0.133 2.257 0.4 2.97 0.267 0.72 0.833 1.08 1.7 1.08v0c0.667 0 1.143-0.2 1.43-0.6 0.28-0.4 0.447-0.86 0.5-1.38 0.047-0.513 0.07-1.27 0.07-2.27v0-3.55h8.7v2.1c0 4.267-0.823 7.407-2.47 9.42-1.653 2.02-4.497 3.03-8.53 3.03zM86.85-21.85h4.15v-4.7c0-2.633-0.65-3.95-1.95-3.95v0c-1.467 0-2.2 1.317-2.2 3.95v0z" fill="#de5f16" fill-rule="nonzero" stroke="none" stroke-width="1" stroke-linecap="butt" stroke-linejoin="miter" stroke-miterlimit="10" stroke-dasharray="" stroke-dashoffset="0" font-family="none" font-weight="none" font-size="none" text-anchor="none" style="mix-blend-mode: normal" data-fill-palette-color="primary" opacity="1"></path></g></svg></g></svg></g></svg></g></svg></g><g transform="matrix(1,0,0,1,0,0.4999999999999858)"><svg viewBox="0 0 184.41338103492788 199.99999999999997" height="199.99999999999997" width="184.41338103492788"><g><svg xmlns="http://www.w3.org/2000/svg" xmlns:xlink="http://www.w3.org/1999/xlink" version="1.1" x="0" y="0" viewBox="19 15.774 50 54.226" enable-background="new 0 0 90 90" xml:space="preserve" height="199.99999999999997" width="184.41338103492788" class="icon-icon-0" data-fill-palette-color="accent" id="icon-0"><g fill="#cf8e56" data-fill-palette-color="accent"><rect x="45" y="66" width="4" height="3" fill="#cf8e56" data-fill-palette-color="accent"></rect><rect x="61" y="66" width="4" height="3" fill="#cf8e56" data-fill-palette-color="accent"></rect><rect x="45" y="38" width="4" height="26" fill="#cf8e56" data-fill-palette-color="accent"></rect><polygon points="45,36 45,34 46.756,29.25 49,34 49,36  " fill="#cf8e56" data-fill-palette-color="accent"></polygon><rect x="61" y="43" width="4" height="21" fill="#cf8e56" data-fill-palette-color="accent"></rect></g><g fill="#cf8e56" data-fill-palette-color="accent"><rect x="53" y="27" width="4" height="42" fill="#cf8e56" data-fill-palette-color="accent"></rect></g><g fill="#cf8e56" data-fill-palette-color="accent"><rect x="67" y="34" width="2" height="12" fill="#cf8e56" data-fill-palette-color="accent"></rect></g><g fill="#cf8e56" data-fill-palette-color="accent"><path d="M38 49v-8H22v8h-3v21h22V49H38zM26 45h8v4h-8V45zM37 66H23V53h14V66z" fill="#cf8e56" data-fill-palette-color="accent"></path><path d="M30 65.75c3.446 0 6.25-2.804 6.25-6.25s-2.804-6.25-6.25-6.25-6.25 2.804-6.25 6.25S26.554 65.75 30 65.75zM30 57.25c1.241 0 2.25 1.009 2.25 2.25s-1.009 2.25-2.25 2.25-2.25-1.009-2.25-2.25S28.759 57.25 30 57.25z" fill="#cf8e56" data-fill-palette-color="accent"></path></g><polygon points="61,41 61,34 62.756,29.25 65,34 65,41 " fill="#cf8e56" data-fill-palette-color="accent"></polygon><path d="M54.613 15.774c0 0-2.773 3.896-2.773 6.261s2.942 2.314 2.942 2.314 2.604-0.194 2.604-2.209S54.613 15.774 54.613 15.774z" fill="#cf8e56" data-fill-palette-color="accent"></path></svg></g></svg></g></svg></g><defs></defs></svg><rect width="395.52" height="139.59291309559134" fill="none" stroke="none" visibility="hidden"></rect></g></svg></g></svg>